<svg xmlns="http://www.w3.org/2000/svg" viewBox="0 0 590 590.04"><title>local-organic-logo</title><path d="M590,295C590,458,457.93,590,295,590S0,458,0,295,132.07,0,295,0,590,132.09,590,295Z" style="fill:#6c9"/><path d="M105.77,388.72v-9.3c0-5.09,2.78-8.27,7.41-8.27s7.37,3.17,7.37,8.27v9.3c0,5.13-2.74,8.3-7.37,8.3S105.77,393.85,105.77,388.72Zm11.79,0v-9.3c0-3.46-1.5-5.42-4.38-5.42s-4.42,2-4.42,5.42v9.3c0,3.49,1.5,5.45,4.42,5.45S117.56,392.21,117.56,388.72Z" style="fill:#fff"/><path d="M139.8,387.15h-2.53v9.41h-2.92V371.62h6.09c4.7,0,7.3,2.78,7.3,7.55,0,4.1-1.82,6.81-5,7.7l5.77,9.69h-3.31Zm-2.53-2.74h3.14c2.89,0,4.38-1.82,4.38-5.13s-1.5-4.92-4.35-4.92h-3.17Z" style="fill:#fff"/><path d="M160.53,389.25V378.89c0-5,2.71-7.66,7-7.66s6.91,2.6,7.09,7.38h-2.89c-.14-3.17-1.67-4.6-4.2-4.6s-4.1,1.53-4.1,4.92v10.33c0,3.35,1.71,4.92,4.24,4.92S172,392.6,172,389.5v-3.78h-4.38v-2.6h7.2v6.38c0,4.7-2.85,7.45-7.13,7.45S160.53,394.21,160.53,389.25Z" style="fill:#fff"/><path d="M197.66,391.14h-7.23l-1.32,5.42H186l6.41-24.94h3.17L202,396.56H199Zm-.64-2.71L195,380c-.39-1.6-.75-3.71-.89-4.67H194c-.14,1-.5,3.06-.89,4.67l-2,8.44Z" style="fill:#fff"/><path d="M228.51,371.62v24.94h-3l-6.13-13.4c-.78-1.78-1.92-4.63-2.46-6.06l-.11,0c.14,2.21.28,5.52.28,7.66v11.76h-2.92V371.62h3l6.23,13.61c.82,1.71,1.92,4.35,2.49,5.81l.11,0c-.18-2.17-.39-5.67-.39-7.84V371.62Z" style="fill:#fff"/><path d="M245.94,371.62v24.94H243V371.62Z" style="fill:#fff"/><path d="M259.76,389.36V378.82c0-4.92,2.78-7.66,6.95-7.66s6.91,2.64,7.16,7.45H271c-.21-3.21-1.71-4.7-4.31-4.7-2.39,0-4,1.57-4,4.92v10.55c0,3.31,1.67,4.88,4.1,4.88,2.64,0,4.1-1.53,4.38-4.67H274c-.29,4.74-2.92,7.41-7.27,7.41S259.76,394.28,259.76,389.36Z" style="fill:#fff"/><path d="M304.19,371.62h5.91c4.77,0,7.55,2.78,7.55,7.55V389c0,4.77-2.81,7.55-7.52,7.55h-5.95Zm5.95,22.16c2.92,0,4.6-1.64,4.6-4.88v-9.66c0-3.21-1.64-4.85-4.6-4.85h-3v19.38Z" style="fill:#fff"/><path d="M343.77,393.82v2.74H331.45V371.62h11.94v2.71h-9v8.23h8.37v2.67h-8.37v8.59Z" style="fill:#fff"/><path d="M368.64,393.78v2.78H357V371.62h2.92v22.16Z" style="fill:#fff"/><path d="M383.71,371.62v24.94h-2.92V371.62Z" style="fill:#fff"/><path d="M395.93,371.62H399l3.38,14.64c.53,2.39.93,4.53,1.35,6.48h.14c.39-2,.82-4.1,1.35-6.48l3.35-14.64h3.1l-6.23,24.94h-3.28Z" style="fill:#fff"/><path d="M436.19,393.82v2.74H423.87V371.62H435.8v2.71h-9v8.23h8.37v2.67h-8.37v8.59Z" style="fill:#fff"/><path d="M454.9,387.15h-2.53v9.41h-2.92V371.62h6.09c4.7,0,7.3,2.78,7.3,7.55,0,4.1-1.82,6.81-5,7.7l5.77,9.69h-3.31Zm-2.53-2.74h3.14c2.89,0,4.38-1.82,4.38-5.13s-1.5-4.92-4.35-4.92h-3.17Z" style="fill:#fff"/><path d="M480,388l-6.13-16.39h3.06l3.17,8.94c.43,1.18.93,2.6,1.35,3.88h0c.43-1.28.93-2.74,1.35-4l3.17-8.87h3.06L482.9,388v8.55H480Z" style="fill:#fff"/><path d="M234.64,261.79c-9.91-10.23-24.26-15.42-42.66-15.42s-32.75,5.19-42.66,15.42c-8.87,9.16-13.56,22-13.56,37s4.69,27.74,13.56,36.92c9.79,10.14,24.54,15.5,42.66,15.5s32.87-5.36,42.66-15.5c8.87-9.19,13.56-22,13.56-36.92S243.51,271,234.64,261.79Zm-34.41,73.64c-1.43,6.88-4,8.18-8.25,8.18s-7-1.3-8.43-8.18S182,317.62,182,298.8s.07-29.8,1.52-36.63S187.64,254,192,254s6.82,1.3,8.25,8.18,1.49,18.36,1.49,36.63S201.65,328.61,200.23,335.43Z" style="fill:#fff"/><path d="M85.42,203.51V344.13a4.66,4.66,0,0,0,4.73,4.58h32.18a4.66,4.66,0,0,0,4.73-4.58V197.6a4.69,4.69,0,0,0-5.61-4.5L89.26,199A4.62,4.62,0,0,0,85.42,203.51Z" style="fill:#fff"/><path d="M444.33,350.6l-.94,0S443.74,350.63,444.33,350.6Z" style="fill:#fff"/><path d="M504.58,203.51V344.13a4.66,4.66,0,0,1-4.73,4.58H467.67a4.66,4.66,0,0,1-4.73-4.58V197.6a4.69,4.69,0,0,1,5.61-4.5L500.74,199A4.62,4.62,0,0,1,504.58,203.51Z" style="fill:#fff"/><path d="M367.18,272.8h0c0-.09,0-.18,0-.26C367.19,272.63,367.18,272.71,367.18,272.8Z" style="fill:#fff"/><path d="M342.93,293.14a8.64,8.64,0,0,1,1.51,4.38c0,.05,0,.11,0,.16s0,.12,0,.2c0,.79.24,2.5,1.22,1.32a4.1,4.1,0,0,0,.27-.37v0l.3-.43a45.23,45.23,0,0,0,6.13-13.16,40,40,0,0,0,1.13-9.84q0-1.48-.18-2.87a28.3,28.3,0,0,0-.65-3.69,27.47,27.47,0,0,0-12.87-16.89,48.26,48.26,0,0,0-24.43-6.19A95.16,95.16,0,0,0,299.6,247c-11.3,1.9-20.59,6-27.75,12.23-.48.42-1,.85-1.43,1.29C261,269.46,256,282.34,256,297.76a51.87,51.87,0,0,0,52.42,52.84c15.58,0,25.56-5.39,31.19-9.92,7.1-5.71,11.31-13.23,11.53-20.62a2.63,2.63,0,0,0-1.61-2.51l-.25-.11a2.63,2.63,0,0,0-3.44,1.3c-2.81,6-9.84,9.41-19.3,9.41-21.11,0-25.54-18-25.54-33.13q0-3.41.1-6.48c0-1.15.08-2.27.14-3.35a97.82,97.82,0,0,1,2.4-18.34l0-.06.06-.23c2-7.95,10-13.89,19.55-13.89s17.7,6,19.6,14.09a20.08,20.08,0,0,1,.37,2.36c0,.1,0,.21,0,.31v.15c0,.28,0,.55,0,.83,0,.12,0,.25,0,.37-.11.33-.38-.07-.59-.47l-.25-.54v0h0a34.3,34.3,0,0,0-3.35-5.42l-.12-.16-.3-.38,0,0h0A13.8,13.8,0,0,0,322.18,260a12.24,12.24,0,0,0-3.84,2.66,13.8,13.8,0,0,0,1.08,20.66,7.21,7.21,0,0,0,1.83,1.23,13.72,13.72,0,0,0,1.56.75,47.07,47.07,0,0,0,6.1,2.11c1.26.35,2.67.72,4.27,1.08,1.23.28,2.56.56,4,.84a12.15,12.15,0,0,1,2.73,1.07l.06,0h0a8.8,8.8,0,0,1,3,2.68Z" style="fill:#fff"/><path d="M412.19,276v-.33h0c0,.11,0,.22,0,.33h0Z" style="fill:#fff"/><path d="M455.14,341.77a32.12,32.12,0,0,1-3.6-11.18c-.16-1.82-.29-3.63-.39-5.32,0-.87,0-1.66-.1-2.4s0-1.17,0-1.71v-31.4c0-13-4-23.92-11.67-31.69-7.89-8-19.34-12.29-33.11-12.3a43.19,43.19,0,0,0-20.74,4.65c-2.05,1.11-3.84,2.2-5.42,3.25-4.87,3.4-11.43,9.33-12.7,17.23l0,.2c0,.08,0,.15,0,.23,0,.3-.08.61-.1.92,0,.1,0,.19,0,.29s0,.18,0,.26a9.32,9.32,0,0,0,18.33,2.41q.1-.42.19-.85l.07-.35c.43-2.43.52-5.17.88-7.95a26.2,26.2,0,0,1,1.17-5.27h0a12.11,12.11,0,0,1,11-8.13h.42a12.1,12.1,0,0,1,11.75,9.2v0c1.66,6.66,1.31,21.8,1.31,21.8v8.19c-36.34,8.57-54.58,13-54.58,35.39a20.8,20.8,0,0,0,11.11,19.08A37,37,0,0,0,386,350.61c12.61,0,23.09-5.55,28-14.66,2,5.07,6,9,11.64,11.55h0s13.26,6.47,27.06,1A4.79,4.79,0,0,0,455.14,341.77ZM412.34,323c-.13,2.92-.9,8.31-4.72,10.46a5,5,0,0,1-1.4.53,4.46,4.46,0,0,1-.88.09,4.37,4.37,0,0,1-3.27-1.35c-2.62-2.66-3.13-8.61-3.1-10.71v-.35c0-8.43,0-17.84,9.89-22.5h0a2.44,2.44,0,0,1,3.47,2.22Z" style="fill:#fff"/></svg>